<?xml version="1.0" encoding="UTF-8" standalone="no"?>
<!-- Created with Inkscape (http://www.inkscape.org/) -->
<svg
   xmlns:dc="http://purl.org/dc/elements/1.1/"
   xmlns:cc="http://creativecommons.org/ns#"
   xmlns:rdf="http://www.w3.org/1999/02/22-rdf-syntax-ns#"
   xmlns:svg="http://www.w3.org/2000/svg"
   xmlns="http://www.w3.org/2000/svg"
   xmlns:xlink="http://www.w3.org/1999/xlink"
   xmlns:sodipodi="http://sodipodi.sourceforge.net/DTD/sodipodi-0.dtd"
   xmlns:inkscape="http://www.inkscape.org/namespaces/inkscape"
   width="250"
   height="90"
   id="svg2"
   sodipodi:version="0.32"
   inkscape:version="0.46"
   version="1.0"
   sodipodi:docbase="/home/kytolaj/Desktop"
   sodipodi:docname="bground.svg"
   inkscape:output_extension="org.inkscape.output.svg.inkscape"
   inkscape:export-filename="/home/dotj/Desktop/bground.png"
   inkscape:export-xdpi="199.80406"
   inkscape:export-ydpi="199.80406"
   sodipodi:modified="true">
  <sodipodi:namedview
     id="base"
     pagecolor="#ffffff"
     bordercolor="#666666"
     borderopacity="1.0"
     gridtolerance="50"
     guidetolerance="10"
     objecttolerance="10"
     inkscape:pageopacity="0.0"
     inkscape:pageshadow="2"
     inkscape:zoom="5.42"
     inkscape:cx="125"
     inkscape:cy="45"
     inkscape:document-units="px"
     inkscape:current-layer="layer1"
     width="250px"
     height="90px"
     showgrid="true"
     inkscape:window-width="1440"
     inkscape:window-height="850"
     inkscape:window-x="0"
     inkscape:window-y="0"
     inkscape:object-paths="false"
     inkscape:grid-bbox="false"
     inkscape:guide-bbox="true"
     showguides="true"
     showborder="true"
     guidecolor="#0000ff"
     guideopacity="0.36078431" />
  <defs
     id="defs4">
    <inkscape:perspective
       sodipodi:type="inkscape:persp3d"
       inkscape:vp_x="0 : 45 : 1"
       inkscape:vp_y="0 : 1000 : 0"
       inkscape:vp_z="250 : 45 : 1"
       inkscape:persp3d-origin="125 : 30 : 1"
       id="perspective27" />
    <linearGradient
       id="linearGradient3287">
      <stop
         style="stop-color:#f7f7f9;stop-opacity:1;"
         offset="0"
         id="stop3289" />
      <stop
         style="stop-color:#ffffff;stop-opacity:0;"
         offset="1"
         id="stop3291" />
    </linearGradient>
    <linearGradient
       id="linearGradient3277">
      <stop
         style="stop-color:#000000;stop-opacity:1;"
         offset="0"
         id="stop3279" />
      <stop
         style="stop-color:#000000;stop-opacity:0;"
         offset="1"
         id="stop3281" />
    </linearGradient>
    <linearGradient
       inkscape:collect="always"
       xlink:href="#linearGradient3277"
       id="linearGradient3283"
       x1="104.98621"
       y1="-84.516685"
       x2="177.91345"
       y2="97.86602"
       gradientUnits="userSpaceOnUse"
       gradientTransform="matrix(0.9994168,0,0,0.8871856,-0.2717983,-0.1329467)" />
    <linearGradient
       inkscape:collect="always"
       xlink:href="#linearGradient3287"
       id="linearGradient3293"
       x1="94.916199"
       y1="-135.30586"
       x2="182.03116"
       y2="86.885948"
       gradientUnits="userSpaceOnUse"
       gradientTransform="matrix(0.998984,0,0,1.0795874,0.2413062,-2.4488334)" />
    <linearGradient
       inkscape:collect="always"
       xlink:href="#linearGradient3287"
       id="linearGradient3297"
       gradientUnits="userSpaceOnUse"
       gradientTransform="matrix(0.9098711,-0.1098193,0,0.1777626,17.348959,79.952055)"
       x1="103.85706"
       y1="-199.15015"
       x2="182.03116"
       y2="86.246841" />
    <filter
       inkscape:collect="always"
       x="-0.034793794"
       width="1.0695876"
       y="-0.21774264"
       height="1.4354852"
       id="filter3319">
      <feGaussianBlur
         inkscape:collect="always"
         stdDeviation="3.5655653"
         id="feGaussianBlur3321" />
    </filter>
    <filter
       inkscape:collect="always"
       x="-0.029679162"
       width="1.0593584"
       y="-0.15857092"
       height="1.3171418"
       id="filter3339">
      <feGaussianBlur
         inkscape:collect="always"
         stdDeviation="3.3669186"
         id="feGaussianBlur3341" />
    </filter>
    <linearGradient
       inkscape:collect="always"
       xlink:href="#linearGradient3277"
       id="linearGradient3213"
       gradientUnits="userSpaceOnUse"
       gradientTransform="matrix(1.0258073,0,0,0.9440164,-2.9395722,-4.0381732)"
       x1="104.98621"
       y1="-84.516685"
       x2="177.91345"
       y2="97.86602" />
    <linearGradient
       inkscape:collect="always"
       xlink:href="#linearGradient3277"
       id="linearGradient3172"
       gradientUnits="userSpaceOnUse"
       gradientTransform="matrix(1.0250141,0,0,0.9835319,-2.7479907,-4.3454463)"
       x1="104.98621"
       y1="-84.516685"
       x2="177.91345"
       y2="97.86602" />
    <linearGradient
       inkscape:collect="always"
       xlink:href="#linearGradient3277"
       id="linearGradient4641"
       gradientUnits="userSpaceOnUse"
       gradientTransform="matrix(1.0196153,0,0,0.9835319,-1.4193434,-4.3454463)"
       x1="104.98621"
       y1="-84.516685"
       x2="177.91345"
       y2="97.86602" />
  </defs>
  <metadata
     id="metadata7">
    <rdf:RDF>
      <cc:Work
         rdf:about="">
        <dc:format>image/svg+xml</dc:format>
        <dc:type
           rdf:resource="http://purl.org/dc/dcmitype/StillImage" />
      </cc:Work>
    </rdf:RDF>
  </metadata>
  <g
     inkscape:label="Layer 1"
     id="layer1"
     inkscape:groupmode="layer">
    <path
       style="opacity:0.75;fill:url(#linearGradient4641);fill-opacity:1;stroke:none;stroke-width:1.99178123;stroke-miterlimit:4;stroke-opacity:1"
       d="M 35.020803,6.3180336 C 35.020803,6.3180336 230.59786,3.3041074 230.59786,3.3041074 C 237.73148,3.1941748 243.52659,8.7977465 243.79256,15.865066 C 243.79256,15.865066 244.85428,44.075402 244.85428,44.075402 C 245.12025,51.14272 239.70577,56.31774 232.67848,57.675449 C 224.35092,59.284374 210.45143,62.633137 198.38525,64.50383 C 193.29744,65.29263 222.69833,80.526214 217.40685,78.896427 C 207.92826,75.977005 176.01625,67.201994 168.56195,68.244928 C 109.6972,76.48075 38.004149,85.588154 38.004149,85.588154 C 22.820094,87.694118 9.73558,80.703608 9.326087,69.822909 C 9.326087,69.822909 7.6915139,26.390839 7.6915139,26.390839 C 7.282015,15.510136 19.766334,6.553112 35.020803,6.3180336 C 35.020803,6.3180336 35.020803,6.3180336 35.020803,6.3180336"
       id="path3275"
       sodipodi:nodetypes="ccccssssccccc" />
    <path
       style="opacity:0.75;fill:url(#linearGradient3293);fill-opacity:1;fill-rule:evenodd;stroke:none;stroke-width:1px;stroke-linecap:butt;stroke-linejoin:miter;stroke-opacity:1;filter:url(#filter3339)"
       d="M 13.107704,46.912251 C 10.747003,39.29712 11.022606,28.745889 14.191792,23.019823 C 17.360977,17.293756 25.744637,15.089175 29.887921,13.520531 C 33.673888,12.087165 203.41177,10.38053 208.86078,10.164563 C 228.94998,9.3683422 228.41625,7.584651 234.13405,11.902628 C 236.71109,13.848759 238.0752,17.971936 238.33825,22.011862 C 238.65884,26.935519 238.26393,31.045548 235.5161,31.630147 C 230.51363,32.694418 198.79594,33.757232 155.3626,37.625665 C 111.92925,41.494098 17.204122,60.12644 13.107704,46.912251 z"
       id="path3285"
       sodipodi:nodetypes="czsszszzc"
       transform="matrix(1.0113468,0,0,0.9835319,2.5589558,-4.1192432)" />
    <path
       sodipodi:nodetypes="czsszscsccc"
       id="path3295"
       d="M 32.747482,89.195229 C 30.597362,88.200852 28.318483,84.593284 29.82502,82.612079 C 31.223286,80.773259 43.107202,80.036218 46.880889,79.322453 C 50.329135,78.670243 202.3959,59.729766 207.35884,59.095191 C 225.65601,56.75566 225.16988,56.520635 230.37764,56.60306 C 232.7248,56.640209 233.96723,57.169165 234.20681,57.805453 C 234.4988,58.580928 234.13912,59.301089 231.63641,59.699421 C 229.13273,60.097906 202.59253,65.544602 188.78739,67.331921 C 182.9092,68.092956 208.51618,75.882522 200.81985,76.903645 C 193.69798,77.84855 175.01764,70.166219 166.45258,71.337915 C 126.89362,76.749557 36.478484,90.920723 32.747482,89.195229 z"
       style="opacity:0.75;fill:url(#linearGradient3297);fill-opacity:1;fill-rule:evenodd;stroke:none;stroke-width:1px;stroke-linecap:butt;stroke-linejoin:miter;stroke-opacity:1;filter:url(#filter3319)"
       transform="matrix(1.0379222,0,0,1.0180665,-3.7016435,-7.4307617)" />
    <path
       style="opacity:0.75;fill:#020000;fill-opacity:0.80751175;stroke:none;stroke-width:1.99199998;stroke-linecap:square;stroke-linejoin:miter;stroke-miterlimit:4;stroke-dasharray:none;stroke-opacity:1"
       d="M 234.82774,0.78125 C 234.82774,0.78125 33.705166,4.0312499 33.705166,4.03125 C 18.017891,4.2849562 5.182842,13.944608 5.6039596,25.6875 C 5.6039596,25.6875 7.2825717,72.562502 7.2825715,72.5625 C 7.7036832,84.305388 21.167758,91.83534 36.782621,89.5625 C 36.782621,89.5625 110.50558,79.73218 171.04049,70.84375 C 178.70627,69.718172 221.47429,81.974242 231.22183,85.125 C 236.66344,86.88393 199.38058,66.726308 204.61273,65.875 C 217.02126,63.856074 228.40879,61.173918 236.97263,59.4375 C 244.19931,57.972207 249.77355,52.40858 249.50005,44.78125 C 249.50005,44.78125 248.41206,14.3125 248.41206,14.3125 C 248.13855,6.6851654 242.16375,0.66260641 234.82774,0.78125 z M 230.60012,3.3125 C 237.73374,3.2025674 243.51436,8.8076805 243.78034,15.875 C 243.78035,15.875 244.86833,44.0625 244.86833,44.0625 C 245.13429,51.129819 239.71014,56.329791 232.68285,57.6875 C 224.35529,59.296425 210.46183,62.629307 198.39564,64.5 C 193.30783,65.2888 222.71139,80.536037 217.41991,78.90625 C 207.94131,75.986832 176.00796,67.207066 168.55366,68.25 C 109.6889,76.485824 37.994952,85.59375 37.994952,85.59375 C 22.810895,87.69971 9.7437016,80.693199 9.3342086,69.8125 C 9.3342086,69.812503 7.6866817,26.40625 7.6866817,26.40625 C 7.2771826,15.525547 19.756284,6.5475784 35.010753,6.3125 C 35.010755,6.3124999 230.60012,3.3125 230.60012,3.3125 z"
       id="path3296" />
  </g>
</svg>
