/* XPM */
static char * rhythmbox_xpm[] = {
"20 20 160 2",
"  	c None",
". 	c #686868",
"+ 	c #676767",
"@ 	c #666666",
"# 	c #656565",
"$ 	c #646464",
"% 	c #525252",
"& 	c #757575",
"* 	c #DEDEDE",
"= 	c #DBDBDB",
"- 	c #C9C9C9",
"; 	c #B0AA96",
"> 	c #AEA78E",
", 	c #ADA68C",
"' 	c #ADA58B",
") 	c #AAA289",
"! 	c #A8A189",
"~ 	c #A69F87",
"{ 	c #B5B3AA",
"] 	c #CCCCCC",
"^ 	c #CACACA",
"/ 	c #A4A4A4",
"( 	c #292929",
"_ 	c #747474",
": 	c #D9D9D9",
"< 	c #D5D5D5",
"[ 	c #B3B3B3",
"} 	c #AC8F30",
"| 	c #B18F14",
"1 	c #B69314",
"2 	c #C49D14",
"3 	c #B39014",
"4 	c #B08E14",
"5 	c #BE9914",
"6 	c #CEC090",
"7 	c #C2C2C2",
"8 	c #9B9B9B",
"9 	c #252525",
"0 	c #737373",
"a 	c #C1C1C1",
"b 	c #B6B6B6",
"c 	c #989898",
"d 	c #CCBD92",
"e 	c #D3C18E",
"f 	c #DECB95",
"g 	c #DBC78E",
"h 	c #D3C18C",
"i 	c #D0BE8C",
"j 	c #D8C48C",
"k 	c #D4CEBA",
"l 	c #9C9C9C",
"m 	c #A7A7A7",
"n 	c #898989",
"o 	c #212121",
"p 	c #818181",
"q 	c #A2A2A2",
"r 	c #A1A1A1",
"s 	c #A0A0A0",
"t 	c #9F9F9F",
"u 	c #A8A8A8",
"v 	c #ABABAB",
"w 	c #AEAEAE",
"x 	c #AAAAAA",
"y 	c #9A9A9A",
"z 	c #969696",
"A 	c #929292",
"B 	c #5D5D5D",
"C 	c #131313",
"D 	c #C8C8C8",
"E 	c #C5C5C5",
"F 	c #C3C3C3",
"G 	c #C7C7C7",
"H 	c #C6C6C6",
"I 	c #BEBEBE",
"J 	c #BABABA",
"K 	c #BCBCBC",
"L 	c #B5B5B5",
"M 	c #1A1A1A",
"N 	c #727272",
"O 	c #D6D6D6",
"P 	c #B4B4B4",
"Q 	c #D1D1D1",
"R 	c #A9A9A9",
"S 	c #D0D0D0",
"T 	c #7E7E7E",
"U 	c #222222",
"V 	c #717171",
"W 	c #BDBDBD",
"X 	c #B0B0B0",
"Y 	c #B1B1B1",
"Z 	c #D3D3D3",
"` 	c #D8D8D8",
" .	c #E3E3E3",
"..	c #9E9E9E",
"+.	c #1E1E1E",
"@.	c #CFCFCF",
"#.	c #B7B7B7",
"$.	c #BBBBBB",
"%.	c #B8B8B8",
"&.	c #6F6F6F",
"*.	c #6E6E6E",
"=.	c #939393",
"-.	c #8D8D8D",
";.	c #808080",
">.	c #919191",
",.	c #999999",
"'.	c #777777",
").	c #555555",
"!.	c #696969",
"~.	c #161616",
"{.	c #6D6D6D",
"].	c #B9B9B9",
"^.	c #B2B2B2",
"/.	c #AFAFAF",
"(.	c #A3A3A3",
"_.	c #838383",
":.	c #BFBFBF",
"<.	c #9D9D9D",
"[.	c #A5A5A5",
"}.	c #ADADAD",
"|.	c #828280",
"1.	c #51504E",
"2.	c #4B4D4D",
"3.	c #747F8A",
"4.	c #737E89",
"5.	c #424344",
"6.	c #41403D",
"7.	c #9C9A96",
"8.	c #868686",
"9.	c #1D1D1D",
"0.	c #B1B0AE",
"a.	c #ACABA7",
"b.	c #9F9F9C",
"c.	c #AFB2B4",
"d.	c #AEB1B3",
"e.	c #989895",
"f.	c #9F9E9A",
"g.	c #BAB9B5",
"h.	c #848484",
"i.	c #1B1B1B",
"j.	c #616161",
"k.	c #909090",
"l.	c #7D7D7D",
"m.	c #434343",
"n.	c #7F7F7F",
"o.	c #8F8F8F",
"p.	c #8B8B8B",
"q.	c #8E8E8E",
"r.	c #888888",
"s.	c #5C5C5C",
"t.	c #4F4F50",
"u.	c #828282",
"v.	c #7C7C7C",
"w.	c #171717",
"x.	c #0E0E0E",
"y.	c #0C0C0C",
"z.	c #0B0B0B",
"A.	c #0A0A0A",
"B.	c #090909",
"C.	c #080808",
"                                        ",
"      . . . + @ @ @ @ @ # $ $ $ %       ",
"    & * = - ; > , ' ) ! ~ { ] ^ / (     ",
"    _ : < [ } | 1 2 3 4 5 6 7 7 8 9     ",
"    0 a b c d e f g h i j k l m n o     ",
"    p l q r s t u v w x y c z A B C     ",
"    & D E F G H I F a J K E D L n M     ",
"    N O H P : 7 x Q Q R S a * m T U     ",
"    V S W 8 7 X q X Y r Z `  ...+ +.    ",
"    V @.#.$.W b %.%.v X J H G &.@ +.    ",
"    *.=.-.p ;.>.p ;.8 ,.c '.).!.!.~.    ",
"    {.J J ].#.b L [ ^.X /.w v (._.M     ",
"    @ E 7 :.^./ q r t <.y [.}.t n +.    ",
"    # F :.W |.1.2.3.4.5.6.7.x l 8.9.    ",
"    # a W $.0.a.b.c.d.e.f.g.m y h.i.    ",
"    j.J P ^.X }.v x m [.q s ..k.l.M     ",
"    m.n.o.=.p.k.q.p.o.8.r.8.8.n.s.C     ",
"    t.r.p.A h.-.p.p o.p 8.u.p v.s.w.    ",
"      x.y.z.z.z.A.A.A.A.B.B.B.C.C.      ",
"                                        "};
